<svg width="1000" height="155" viewBox="0 0 1000 155" fill="none" xmlns="http://www.w3.org/2000/svg">
      
    <style>
      .title {
        font: 700 18px -apple-system, BlinkMacSystemFont, 'Segoe UI', Ubuntu, sans-serif;
        fill: #58a6ff;
      }

      .label {
        font: 600 12px -apple-system, BlinkMacSystemFont, 'Segoe UI', Ubuntu, sans-serif;
        fill: #c9d1d9;
      }

      .muted {
        font: 400 11px -apple-system, BlinkMacSystemFont, 'Segoe UI', Ubuntu, sans-serif;
        fill: #8b949e;
      }

      .big {
        font: 700 28px -apple-system, BlinkMacSystemFont, 'Segoe UI', Ubuntu, sans-serif;
        fill: #58a6ff;
      }

      .white {
        font: 700 14px -apple-system, BlinkMacSystemFont, 'Segoe UI', Ubuntu, sans-serif;
        fill: #f0f6fc;
      }

      .small {
        font: 500 10px -apple-system, BlinkMacSystemFont, 'Segoe UI', Ubuntu, sans-serif;
        fill: #8b949e;
      }
    </style>
    
      <rect width="1000" height="155" rx="8" fill="#0d1117"/>
      
      <text x="32" y="34" class="title">Most Used Languages</text>

      <clipPath id="langBar">
        <rect x="32" y="66" width="936" height="8" rx="4"/>
      </clipPath>

      <g clip-path="url(#langBar)">
        <rect x="32.00" y="66" width="588.18" height="8" fill="#3178c6"/><rect x="620.18" y="66" width="231.16" height="8" fill="#f1e05a"/><rect x="851.34" y="66" width="73.39" height="8" fill="#563d7c"/><rect x="924.74" y="66" width="32.87" height="8" fill="#e34c26"/><rect x="957.60" y="66" width="4.77" height="8" fill="#3572A5"/><rect x="962.37" y="66" width="3.06" height="8" fill="#336790"/><rect x="965.43" y="66" width="3.00" height="8" fill="#dea584"/><rect x="968.43" y="66" width="3.00" height="8" fill="#ff5d01"/>
      </g>

      <rect x="32" y="66" width="936" height="8" rx="4" stroke="#30363d"/>

      
          <circle cx="32" cy="101" r="5" fill="#3178c6"/>
          <text x="46" y="105" class="small">TypeScript 62.84%</text>
        
          <circle cx="267" cy="101" r="5" fill="#f1e05a"/>
          <text x="281" y="105" class="small">JavaScript 24.70%</text>
        
          <circle cx="502" cy="101" r="5" fill="#563d7c"/>
          <text x="516" y="105" class="small">CSS 7.84%</text>
        
          <circle cx="737" cy="101" r="5" fill="#e34c26"/>
          <text x="751" y="105" class="small">HTML 3.51%</text>
        
          <circle cx="32" cy="131" r="5" fill="#3572A5"/>
          <text x="46" y="135" class="small">Python 0.51%</text>
        
          <circle cx="267" cy="131" r="5" fill="#336790"/>
          <text x="281" y="135" class="small">PLpgSQL 0.33%</text>
        
          <circle cx="502" cy="131" r="5" fill="#dea584"/>
          <text x="516" y="135" class="small">Rust 0.21%</text>
        
          <circle cx="737" cy="131" r="5" fill="#ff5d01"/>
          <text x="751" y="135" class="small">Astro 0.04%</text>
        
    
    </svg>